<?xml version="1.0"?>
<svg xmlns="http://www.w3.org/2000/svg" xmlns:xlink="http://www.w3.org/1999/xlink" xmlns:svgjs="http://svgjs.com/svgjs" version="1.1" width="512" height="512" x="0" y="0" viewBox="0 0 64 64" style="enable-background:new 0 0 512 512" xml:space="preserve" class=""><g><g xmlns="http://www.w3.org/2000/svg"><g><path d="m20 40c-1.105 0-2-.895-2-2v-3h-13v12h18v-7z" fill="#66bfbf" data-original="#f0bc5e" style=""/></g><g><path d="m42 17c-8.271 0-15 6.729-15 15s6.729 15 15 15 15-6.729 15-15-6.729-15-15-15zm0 25c-5.523 0-10-4.477-10-10s4.477-10 10-10 10 4.477 10 10-4.477 10-10 10z" fill="#66bfbf" data-original="#f0bc5e" style=""/></g><g><path d="m29 50h14v9h-14z" fill="#66bfbf" data-original="#f0bc5e" style=""/></g><g><path d="m21 28h4v8h-4z" fill="#66bfbf" data-original="#f0bc5e" style=""/></g><g><path d="m29 5h2v2h-2z" fill="#40514e" data-original="#000000" style="" class=""/><path d="m25 5h2v2h-2z" fill="#40514e" data-original="#000000" style="" class=""/><path d="m21 5h2v2h-2z" fill="#40514e" data-original="#000000" style="" class=""/><path d="m5 27h2v2h-2z" fill="#40514e" data-original="#000000" style="" class=""/><path d="m13 27h2v2h-2z" fill="#40514e" data-original="#000000" style="" class=""/><path d="m9 27h2v2h-2z" fill="#40514e" data-original="#000000" style="" class=""/><path d="m27 43h-4v2h2v8h-14v-6h-2v8h18z" fill="#40514e" data-original="#000000" style="" class=""/><path d="m63 38v-34c0-1.654-1.346-3-3-3h-40c-1.654 0-3 1.346-3 3v19h-13c-1.654 0-3 1.346-3 3v34c0 1.654 1.346 3 3 3h40c1.654 0 3-1.346 3-3v-13.875c-.65.231-1.313.433-2 .573v13.302c0 .552-.449 1-1 1h-40c-.551 0-1-.448-1-1v-27h14v5c0 1.654 1.346 3 3 3h10.028c-.477-.632-.912-1.296-1.285-2h-8.743c-.551 0-1-.448-1-1v-27h42v27c0 .552-.449 1-1 1h-4.744c-.112.211-.24.412-.362.617-.331.558-.69 1.096-1.087 1.604l6.658 6.658c.34.341.535.811.535 1.293 0 1.008-.82 1.828-1.829 1.828-.488 0-.948-.19-1.293-.535l-6.658-6.658c-.534.418-1.097.799-1.685 1.143l6.93 6.93c.723.722 1.684 1.12 2.706 1.12 2.112 0 3.829-1.718 3.829-3.828 0-1.023-.398-1.984-1.122-2.707l-5.464-5.465h3.586c1.654 0 3-1.346 3-3zm-60-7v-5c0-.552.449-1 1-1h13v6zm16-22v-5c0-.552.449-1 1-1h40c.551 0 1 .448 1 1v5z" fill="#40514e" data-original="#000000" style="" class=""/><path d="m45.707 28.293-1.414 1.414 2.293 2.293-2.293 2.293 1.414 1.414 3.707-3.707z" fill="#40514e" data-original="#000000" style="" class=""/><path d="m38.293 28.293-3.707 3.707 3.707 3.707 1.414-1.414-2.293-2.293 2.293-2.293z" fill="#40514e" data-original="#000000" style="" class=""/><path d="m37.475 31h10.05v2h-10.05z" transform="matrix(.1 -.995 .995 .1 6.426 71.102)" fill="#40514e" data-original="#000000" style="" class=""/><path d="m53 32c0-6.065-4.935-11-11-11s-11 4.935-11 11 4.935 11 11 11 11-4.935 11-11zm-11 9c-4.962 0-9-4.037-9-9s4.038-9 9-9 9 4.037 9 9-4.038 9-9 9z" fill="#40514e" data-original="#000000" style="" class=""/><path d="m5 57h2v2h-2z" fill="#40514e" data-original="#000000" style="" class=""/><path d="m9 57h18v2h-18z" fill="#40514e" data-original="#000000" style="" class=""/><path d="m29 57h2v2h-2z" fill="#40514e" data-original="#000000" style="" class=""/><path d="m33 57h10v2h-10z" fill="#40514e" data-original="#000000" style="" class=""/><path d="m29 53h14v2h-14z" fill="#40514e" data-original="#000000" style="" class=""/><path d="m29 49h14v2h-14z" fill="#40514e" data-original="#000000" style="" class=""/><path d="m21 35h4v2h-4z" fill="#40514e" data-original="#000000" style="" class=""/><path d="m21 31h4v2h-4z" fill="#40514e" data-original="#000000" style="" class=""/><path d="m21 27h4v2h-4z" fill="#40514e" data-original="#000000" style="" class=""/><path d="m27 13h-6v12h6zm-2 10h-2v-8h2z" fill="#40514e" data-original="#000000" style="" class=""/><path d="m29 13h2v2h-2z" fill="#40514e" data-original="#000000" style="" class=""/><path d="m33 13h26v2h-26z" fill="#40514e" data-original="#000000" style="" class=""/><path d="m53 17h6v2h-6z" fill="#40514e" data-original="#000000" style="" class=""/></g></g></g></svg>
